<?xml version="1.0" encoding="UTF-8"?>
<svg xmlns="http://www.w3.org/2000/svg" xmlns:xlink="http://www.w3.org/1999/xlink" width="201.5pt" height="127.9pt" viewBox="0 0 201.5 127.9" version="1.1">
<defs>
<clipPath id="clip1">
  <path d="M 45 0 L 201.5 0 L 201.5 127.898438 L 45 127.898438 Z M 45 0 "/>
</clipPath>
<clipPath id="clip2">
  <path d="M 42 0 L 201.5 0 L 201.5 127.898438 L 42 127.898438 Z M 42 0 "/>
</clipPath>
<clipPath id="clip3">
  <path d="M 45 0 L 201.5 0 L 201.5 100 L 45 100 Z M 45 0 "/>
</clipPath>
</defs>
<g id="surface1">
<path style="fill-rule:evenodd;fill:rgb(0%,0%,0%);fill-opacity:1;stroke-width:5.669;stroke-linecap:butt;stroke-linejoin:miter;stroke:rgb(0%,0%,0%);stroke-opacity:1;stroke-miterlimit:4;" d="M 557.304688 904.195313 C 564.335938 953.492188 547.695313 973.804688 522.851563 983.882813 C 487.617188 1011.1875 440.078125 1002.90625 396.015625 1004.78125 C 320.820313 1002.28125 245.585938 999.898438 170.390625 997.515625 C 152.148438 1000.015625 136.835938 1004.507813 126.015625 1012.007813 C 118.710938 1017.398438 111.484375 1022.90625 104.21875 1028.296875 C 90.625 1036.382813 76.015625 1032.789063 60.742188 1020.992188 C 41.875 1002.710938 23.007813 984.390625 4.101563 965.992188 C 4.101563 927.398438 4.101563 888.6875 4.101563 850.09375 C 6.640625 847.320313 9.21875 844.390625 11.835938 841.695313 C 12.109375 787.320313 12.421875 732.90625 12.734375 678.492188 C 4.6875 672.59375 2.304688 664.703125 4.101563 655.289063 C 5.078125 649.390625 10.507813 646.5 20.859375 646.8125 C 26.875 648.296875 30.429688 651.890625 31.757813 657.710938 C 32.382813 664.3125 30.664063 670.679688 23.59375 676.695313 C 23.59375 729 23.59375 781.1875 23.59375 833.492188 C 55.742188 819.117188 90.195313 808.101563 128.710938 805.40625 C 186.015625 799.195313 243.085938 801.5 299.960938 813.492188 C 300.585938 802.085938 301.171875 790.601563 301.71875 779.117188 C 292.109375 774.820313 284.375 768.296875 279.140625 759.195313 C 280.039063 716.304688 280.9375 673.414063 281.835938 630.484375 C 265.820313 631.109375 249.84375 631.695313 233.828125 632.320313 C 219.765625 639 208.710938 648.492188 201.210938 661.382813 C 189.882813 690.914063 189.0625 717.984375 190.3125 744.703125 C 185.46875 755.679688 177.460938 761.617188 165.859375 761.890625 C 146.679688 757.90625 132.890625 744.390625 121.484375 726.617188 C 116.171875 718.882813 111.601563 707.398438 111.484375 691.1875 C 110.898438 630.210938 110.273438 569.195313 109.6875 508.179688 C 120.15625 490.796875 134.0625 474.820313 154.960938 462.007813 C 177.265625 447.320313 200.429688 439.195313 224.765625 439.390625 C 224.765625 365.09375 224.765625 290.796875 224.765625 216.5 C 218.789063 210.210938 216.328125 203.882813 216.601563 197.398438 C 218.242188 188.609375 224.453125 185.015625 232.890625 183.804688 C 240.117188 185.09375 243.90625 188.804688 244.6875 194.703125 C 245.585938 202.320313 243.59375 208.804688 237.460938 213.6875 C 237.734375 288.609375 238.046875 363.492188 238.359375 438.414063 C 241.992188 438.414063 245.585938 438.414063 249.179688 438.414063 C 249.53125 405.796875 249.84375 373.179688 250.117188 340.601563 C 246.054688 333.804688 243.4375 327.320313 243.789063 321.617188 C 245.195313 314.820313 249.101563 311.382813 255.546875 311.617188 C 262.578125 311.8125 266.71875 315.40625 267.34375 323.414063 C 267.617188 329.390625 265.664063 334.703125 260.078125 338.804688 C 260.390625 372.007813 260.703125 405.210938 261.015625 438.414063 C 293.28125 439.820313 324.84375 445.210938 355.234375 457.515625 C 418.125 474.507813 476.054688 499.898438 527.382813 536.304688 C 581.5625 573.804688 629.765625 614.703125 665.117188 663.101563 C 662.304688 682.90625 660.117188 702.515625 661.484375 721.109375 C 664.882813 743.101563 667.03125 764.820313 668.710938 786.382813 C 668.320313 814.507813 663.085938 842.320313 646.09375 869.820313 C 624.6875 890.289063 593.867188 900.40625 557.304688 904.195313 Z M 557.304688 904.195313 " transform="matrix(0.1,0,0,-0.1,0,127.9)"/>
<path style="fill-rule:evenodd;fill:rgb(0%,0%,0%);fill-opacity:1;stroke-width:5.669;stroke-linecap:butt;stroke-linejoin:miter;stroke:rgb(0%,0%,0%);stroke-opacity:1;stroke-miterlimit:4;" d="M 715.3125 772.515625 C 701.5625 769.703125 687.8125 768.492188 675.390625 779.820313 C 659.921875 804.117188 648.789063 828.882813 641.015625 854.117188 C 642.65625 864.898438 648.984375 874.585938 661.875 883.101563 C 703.4375 896.695313 746.40625 907.398438 792.34375 912.085938 C 805.585938 911.1875 817.03125 906.1875 826.71875 897.59375 C 836.015625 880.289063 841.601563 862.203125 843.085938 843.179688 C 838.867188 833.296875 831.523438 825.289063 821.328125 818.6875 C 790.234375 800.796875 753.59375 786.1875 715.3125 772.515625 Z M 715.3125 772.515625 " transform="matrix(0.1,0,0,-0.1,0,127.9)"/>
<g clip-path="url(#clip1)" clip-rule="nonzero">
<path style=" stroke:none;fill-rule:evenodd;fill:rgb(0%,0%,0%);fill-opacity:1;" d="M 51.667969 7.640625 C 53.816406 7.671875 55.960938 7.699219 58.105469 7.730469 C 58.566406 7.921875 58.921875 8.25 59.011719 8.910156 C 59.011719 9.269531 59.011719 9.640625 59.011719 9.988281 C 65.96875 12.011719 74.804688 12.628906 83.382813 13.441406 C 84.472656 12.921875 85.558594 12.410156 86.644531 11.898438 C 87.632813 11.660156 88.691406 11.550781 89.90625 11.71875 C 91.355469 12.339844 92.070313 13.261719 91.992188 14.53125 C 99.324219 16.441406 106.757813 18.328125 109.480469 21.320313 C 115.523438 20.460938 121.734375 20.339844 128.324219 21.871094 C 128.347656 20.25 128.371094 18.640625 128.597656 17.070313 C 130.589844 15.371094 132.59375 13.699219 134.757813 12.261719 C 135.339844 12.238281 135.890625 12.269531 136.390625 12.351563 C 136.480469 9.820313 136.570313 7.28125 136.660156 4.738281 C 138.683594 3.128906 140.777344 1.570313 143.367188 0.390625 C 144.871094 0.199219 146.355469 0.0585938 147.621094 0.480469 C 148.453125 0.699219 148.964844 1.339844 149.164063 2.390625 C 149.074219 4.53125 149.148438 6.671875 149.527344 8.820313 C 151.09375 14.609375 153.078125 20.128906 155.78125 25.21875 C 159.746094 31.859375 163.8125 37.121094 167.921875 41.710938 C 174.695313 49.269531 181.515625 56.800781 188.398438 64.269531 C 192.285156 68.148438 195.910156 72.320313 199.179688 76.871094 C 200.523438 78.589844 200.960938 80.511719 200.8125 82.570313 C 200.78125 86.46875 200.746094 90.371094 200.722656 94.261719 C 200.722656 94.871094 200.621094 95.480469 200.269531 96.070313 C 200.296875 102.261719 200.328125 108.460938 200.359375 114.648438 C 200.820313 115.101563 201.144531 115.628906 201.289063 116.261719 C 201.164063 117.238281 200.738281 117.859375 199.90625 118 C 199.203125 117.960938 198.746094 117.589844 198.636719 116.730469 C 198.507813 116.039063 198.746094 115.308594 199.089844 114.558594 C 199.089844 108.96875 199.089844 103.378906 199.089844 97.800781 C 198.421875 98.449219 197.6875 98.980469 196.914063 99.417969 C 196.914063 107.609375 196.914063 115.800781 196.914063 123.980469 C 197.382813 124.46875 197.621094 125.070313 197.640625 125.789063 C 197.6875 126.820313 197.183594 127.328125 196.355469 127.539063 C 195.617188 127.398438 195.101563 126.941406 194.921875 125.980469 C 194.894531 125.160156 195.203125 124.339844 195.648438 123.53125 C 195.648438 115.859375 195.648438 108.191406 195.648438 100.511719 C 192.023438 103.03125 188.140625 104.859375 183.953125 105.859375 C 175.753906 108.25 167.679688 107.96875 159.585938 108.03125 C 153.015625 108.128906 146.855469 106.667969 141.011719 103.960938 C 138.261719 102.480469 135.800781 100.589844 133.578125 98.339844 C 132.476563 97.109375 131.769531 95.570313 131.132813 93.988281 C 130.984375 87.769531 130.828125 81.550781 130.679688 75.320313 C 131.453125 71.050781 133.003906 67.199219 135.664063 64 C 137.683594 61.738281 139.855469 59.621094 142.371094 57.839844 C 142.738281 57.5 142.835938 57.128906 142.730469 56.75 C 141.703125 55.820313 140.679688 54.878906 139.652344 53.941406 C 137.855469 55.871094 135.828125 57.390625 133.21875 57.839844 C 133.4375 58.910156 133.503906 59.980469 133.21875 61.011719 C 133.0625 62.019531 132.660156 63.050781 132.132813 64.089844 C 130.847656 65.71875 129.585938 67.410156 128.234375 68.890625 C 126.960938 70.609375 125.402344 72.089844 123.886719 73.609375 C 123.914063 74.691406 123.945313 75.78125 123.976563 76.871094 C 124.011719 77.289063 123.871094 77.640625 123.613281 77.949219 C 123.613281 85.261719 123.613281 92.570313 123.613281 99.878906 C 124.039063 100.28125 124.242188 100.738281 124.246094 101.238281 C 124.476563 102.332031 124.039063 102.859375 122.980469 102.871094 C 122.179688 102.929688 121.839844 102.410156 121.710938 101.601563 C 121.734375 100.839844 121.976563 100.167969 122.34375 99.609375 C 122.34375 92.871094 122.34375 86.140625 122.34375 79.398438 C 121.316406 80.640625 120.03125 81.589844 118.539063 82.300781 C 116.996094 82.660156 115.496094 82.660156 114.007813 82.570313 C 112.390625 82.519531 110.90625 82.148438 109.386719 81.851563 C 108.578125 83.140625 107.214844 83.929688 105.578125 84.480469 C 102.828125 85.46875 99.847656 85.691406 96.789063 85.660156 C 92.695313 85.898438 88.902344 85.667969 85.832031 84.300781 C 83.953125 83.300781 82.359375 82.03125 80.847656 80.667969 C 79.371094 79.011719 78.789063 76.941406 78.21875 74.871094 C 78.09375 70.800781 78.511719 66.808594 79.035156 62.820313 C 79.433594 61.179688 80.246094 59.730469 81.117188 58.289063 C 81.496094 56.648438 81.480469 55.082031 81.117188 53.582031 C 79.871094 54.25 78.757813 55.121094 77.855469 56.300781 C 76.496094 54.148438 75.570313 51.960938 74.6875 49.769531 C 76.4375 47.121094 78.261719 44.488281 80.664063 42.160156 C 81.113281 39.648438 81.382813 37.167969 81.390625 34.730469 C 80.90625 33.808594 80.183594 33.167969 79.214844 32.832031 C 73.199219 31.96875 67.101563 31.359375 61.003906 30.738281 C 58.398438 30.558594 55.929688 30.179688 53.574219 29.75 C 51.839844 29.332031 50.371094 28.648438 49.132813 27.761719 C 47.886719 26.800781 46.882813 25.761719 45.964844 24.671875 C 46.054688 20.539063 46.144531 16.398438 46.234375 12.261719 C 48.042969 10.71875 49.859375 9.179688 51.667969 7.640625 Z M 184.320313 87.648438 C 175.921875 88.910156 167.496094 89.109375 159.039063 88.28125 C 153.234375 87.710938 147.992188 85.890625 144.636719 82.75 C 143.382813 81.582031 143.257813 80.230469 143.820313 78.769531 C 145.121094 75.960938 146.523438 73.390625 148.53125 72.238281 C 149.824219 71.429688 151.28125 70.800781 152.972656 70.429688 C 153.621094 70.300781 154.21875 69.96875 154.78125 69.53125 C 155.578125 68.800781 156.390625 68.082031 157.230469 67.441406 C 157.140625 64.238281 157.046875 61.039063 156.953125 57.839844 C 166.078125 67.769531 175.199219 77.710938 184.320313 87.648438 Z M 113.828125 61.28125 C 112.53125 60.25 111.230469 59.230469 109.933594 58.199219 C 111.425781 58.140625 112.902344 58.121094 114.28125 58.289063 C 115.488281 58.511719 115.964844 58.980469 115.550781 59.738281 C 114.976563 60.25 114.402344 60.769531 113.828125 61.28125 Z M 113.828125 61.28125 "/>
</g>
<g clip-path="url(#clip2)" clip-rule="nonzero">
<path style="fill:none;stroke-width:5.669;stroke-linecap:butt;stroke-linejoin:miter;stroke:rgb(0%,0%,0%);stroke-opacity:1;stroke-miterlimit:4;" d="M 516.679688 1202.59375 C 538.164063 1202.28125 559.609375 1202.007813 581.054688 1201.695313 C 585.664063 1199.78125 589.21875 1196.5 590.117188 1189.898438 C 590.117188 1186.304688 590.117188 1182.59375 590.117188 1179.117188 C 659.6875 1158.882813 748.046875 1152.710938 833.828125 1144.585938 C 844.726563 1149.78125 855.585938 1154.898438 866.445313 1160.015625 C 876.328125 1162.398438 886.914063 1163.492188 899.0625 1161.8125 C 913.554688 1155.601563 920.703125 1146.382813 919.921875 1133.6875 C 993.242188 1114.585938 1067.578125 1095.71875 1094.804688 1065.796875 C 1155.234375 1074.390625 1217.34375 1075.601563 1283.242188 1060.289063 C 1283.476563 1076.5 1283.710938 1092.59375 1285.976563 1108.296875 C 1305.898438 1125.289063 1325.9375 1142.007813 1347.578125 1156.382813 C 1353.398438 1156.617188 1358.90625 1156.304688 1363.90625 1155.484375 C 1364.804688 1180.796875 1365.703125 1206.1875 1366.601563 1231.617188 C 1386.835938 1247.710938 1407.773438 1263.296875 1433.671875 1275.09375 C 1448.710938 1277.007813 1463.554688 1278.414063 1476.210938 1274.195313 C 1484.53125 1272.007813 1489.648438 1265.601563 1491.640625 1255.09375 C 1490.742188 1233.6875 1491.484375 1212.28125 1495.273438 1190.796875 C 1510.9375 1132.90625 1530.78125 1077.710938 1557.8125 1026.8125 C 1597.460938 960.40625 1638.125 907.789063 1679.21875 861.890625 C 1746.953125 786.304688 1815.15625 710.992188 1883.984375 636.304688 C 1922.851563 597.515625 1959.101563 555.796875 1991.796875 510.289063 C 2005.234375 493.101563 2009.609375 473.882813 2008.125 453.296875 C 2007.8125 414.3125 2007.460938 375.289063 2007.226563 336.382813 C 2007.226563 330.289063 2006.210938 324.195313 2002.695313 318.296875 C 2002.96875 256.382813 2003.28125 194.390625 2003.59375 132.515625 C 2008.203125 127.984375 2011.445313 122.710938 2012.890625 116.382813 C 2011.640625 106.617188 2007.382813 100.40625 1999.0625 99 C 1992.03125 99.390625 1987.460938 103.101563 1986.367188 111.695313 C 1985.078125 118.609375 1987.460938 125.914063 1990.898438 133.414063 C 1990.898438 189.3125 1990.898438 245.210938 1990.898438 300.992188 C 1984.21875 294.507813 1976.875 289.195313 1969.140625 284.820313 C 1969.140625 202.90625 1969.140625 120.992188 1969.140625 39.195313 C 1973.828125 34.3125 1976.210938 28.296875 1976.40625 21.109375 C 1976.875 10.796875 1971.835938 5.71875 1963.554688 3.609375 C 1956.171875 5.015625 1951.015625 9.585938 1949.21875 19.195313 C 1948.945313 27.398438 1952.03125 35.601563 1956.484375 43.6875 C 1956.484375 120.40625 1956.484375 197.085938 1956.484375 273.882813 C 1920.234375 248.6875 1881.40625 230.40625 1839.53125 220.40625 C 1757.539063 196.5 1676.796875 199.3125 1595.859375 198.6875 C 1530.15625 197.710938 1468.554688 212.320313 1410.117188 239.390625 C 1382.617188 254.195313 1358.007813 273.101563 1335.78125 295.601563 C 1324.765625 307.90625 1317.695313 323.296875 1311.328125 339.117188 C 1309.84375 401.304688 1308.28125 463.492188 1306.796875 525.796875 C 1314.53125 568.492188 1330.039063 607.007813 1356.640625 639 C 1376.835938 661.617188 1398.554688 682.789063 1423.710938 700.601563 C 1427.382813 704 1428.359375 707.710938 1427.304688 711.5 C 1417.03125 720.796875 1406.796875 730.210938 1396.523438 739.585938 C 1378.554688 720.289063 1358.28125 705.09375 1332.1875 700.601563 C 1334.375 689.898438 1335.039063 679.195313 1332.1875 668.882813 C 1330.625 658.804688 1326.601563 648.492188 1321.328125 638.101563 C 1308.476563 621.8125 1295.859375 604.898438 1282.34375 590.09375 C 1269.609375 572.90625 1254.023438 558.101563 1238.867188 542.90625 C 1239.140625 532.085938 1239.453125 521.1875 1239.765625 510.289063 C 1240.117188 506.109375 1238.710938 502.59375 1236.132813 499.507813 C 1236.132813 426.382813 1236.132813 353.296875 1236.132813 280.210938 C 1240.390625 276.1875 1242.421875 271.617188 1242.460938 266.617188 C 1244.765625 255.679688 1240.390625 250.40625 1229.804688 250.289063 C 1221.796875 249.703125 1218.398438 254.898438 1217.109375 262.984375 C 1217.34375 270.601563 1219.765625 277.320313 1223.4375 282.90625 C 1223.4375 350.289063 1223.4375 417.59375 1223.4375 485.015625 C 1213.164063 472.59375 1200.3125 463.101563 1185.390625 455.992188 C 1169.960938 452.398438 1154.960938 452.398438 1140.078125 453.296875 C 1123.90625 453.804688 1109.0625 457.515625 1093.867188 460.484375 C 1085.78125 447.59375 1072.148438 439.703125 1055.78125 434.195313 C 1028.28125 424.3125 998.476563 422.085938 967.890625 422.398438 C 926.953125 420.015625 889.023438 422.320313 858.320313 435.992188 C 839.53125 445.992188 823.59375 458.6875 808.476563 472.320313 C 793.710938 488.882813 787.890625 509.585938 782.1875 530.289063 C 780.9375 570.992188 785.117188 610.914063 790.351563 650.796875 C 794.335938 667.203125 802.460938 681.695313 811.171875 696.109375 C 814.960938 712.515625 814.804688 728.179688 811.171875 743.179688 C 798.710938 736.5 787.578125 727.789063 778.554688 715.992188 C 764.960938 737.515625 755.703125 759.390625 746.875 781.304688 C 764.375 807.789063 782.617188 834.117188 806.640625 857.398438 C 811.132813 882.515625 813.828125 907.320313 813.90625 931.695313 C 809.0625 940.914063 801.835938 947.320313 792.148438 950.679688 C 731.992188 959.3125 671.015625 965.40625 610.039063 971.617188 C 583.984375 973.414063 559.296875 977.203125 535.742188 981.5 C 518.398438 985.679688 503.710938 992.515625 491.328125 1001.382813 C 478.867188 1010.992188 468.828125 1021.382813 459.648438 1032.28125 C 460.546875 1073.609375 461.445313 1115.015625 462.34375 1156.382813 C 480.429688 1171.8125 498.59375 1187.203125 516.679688 1202.59375 Z M 1843.203125 402.515625 C 1759.21875 389.898438 1674.960938 387.90625 1590.390625 396.1875 C 1532.34375 401.890625 1479.921875 420.09375 1446.367188 451.5 C 1433.828125 463.179688 1432.578125 476.695313 1438.203125 491.304688 C 1451.210938 519.390625 1465.234375 545.09375 1485.3125 556.617188 C 1498.242188 564.703125 1512.8125 570.992188 1529.726563 574.703125 C 1536.210938 575.992188 1542.1875 579.3125 1547.8125 583.6875 C 1555.78125 590.992188 1563.90625 598.179688 1572.304688 604.585938 C 1571.40625 636.617188 1570.46875 668.609375 1569.53125 700.601563 C 1660.78125 601.304688 1751.992188 501.890625 1843.203125 402.515625 Z M 1138.28125 666.1875 C 1125.3125 676.5 1112.304688 686.695313 1099.335938 697.007813 C 1114.257813 697.59375 1129.023438 697.789063 1142.8125 696.109375 C 1154.882813 693.882813 1159.648438 689.195313 1155.507813 681.617188 C 1149.765625 676.5 1144.023438 671.304688 1138.28125 666.1875 Z M 1138.28125 666.1875 " transform="matrix(0.1,0,0,-0.1,0,127.9)"/>
</g>
<path style="fill-rule:evenodd;fill:rgb(99.21875%,99.21875%,99.21875%);fill-opacity:1;stroke-width:5.669;stroke-linecap:butt;stroke-linejoin:miter;stroke:rgb(99.21875%,99.21875%,99.21875%);stroke-opacity:1;stroke-miterlimit:4;" d="M 132.34375 698.492188 C 130.390625 672.398438 130.46875 647.203125 133.242188 623.296875 C 143.515625 595.40625 161.484375 573.414063 195.78125 563.492188 C 251.132813 554.195313 307.578125 559.820313 365.195313 581.617188 C 427.851563 605.210938 487.851563 634.585938 543.710938 673.101563 C 578.945313 698.179688 611.914063 725.601563 637.890625 760.09375 C 656.71875 788.492188 651.289063 818.179688 627.070313 848.882813 C 609.921875 866.617188 587.578125 871.890625 561.835938 868.804688 C 537.890625 868.296875 515.234375 862.90625 492.929688 856.1875 C 505.9375 877.007813 518.945313 897.789063 531.914063 918.6875 C 541.992188 944.195313 522.460938 960.484375 508.359375 966.695313 C 477.109375 976.5 444.648438 980.992188 411.40625 982.085938 C 364.0625 984.820313 314.882813 980.914063 265.546875 976.695313 C 227.460938 977.085938 189.140625 977.90625 150.429688 979.390625 C 124.492188 979.507813 107.929688 992.007813 91.5625 1004.78125 C 65.742188 992.203125 47.5 974.117188 31.757813 954 C 47.734375 943.6875 64.570313 934.117188 85.234375 927.710938 C 128.359375 917.789063 174.21875 919.390625 220.234375 921.382813 C 253.164063 923.179688 286.054688 925.015625 318.984375 926.8125 C 329.023438 882.789063 336.992188 838.296875 357.929688 797.320313 C 340.585938 778.6875 322.304688 761.382813 302.695313 745.601563 C 306.992188 738.492188 312.421875 731.8125 321.679688 726.617188 C 340.9375 737.515625 360.429688 749 379.6875 760.992188 C 407.460938 726.382813 440.273438 695.015625 482.070313 669.507813 C 452.617188 649 415.078125 636.695313 375.15625 626.890625 C 335.429688 615.289063 293.945313 609.390625 251.054688 607.90625 C 215.546875 602.789063 195.15625 621.890625 179.453125 648.6875 C 176.132813 677.59375 172.8125 706.617188 169.492188 735.601563 C 156.171875 728.296875 144.492188 712.203125 132.34375 698.492188 Z M 431.328125 835.289063 C 413.359375 861.890625 404.804688 892.007813 398.710938 923.179688 C 417.148438 922.085938 435.15625 919.898438 452.1875 915.015625 C 474.140625 907.984375 478.125 895.992188 466.640625 879.703125 C 454.375 862.789063 442.617188 848.179688 431.328125 835.289063 Z M 560.898438 715.679688 C 519.726563 717.59375 486.484375 755.09375 453.085938 791.8125 C 472.890625 801.695313 493.828125 810.210938 516.523438 816.304688 C 540.390625 819.195313 564.023438 819 587.1875 814.507813 C 608.671875 804.820313 617.226563 791.382813 605.3125 771.890625 C 593.4375 752.007813 579.140625 732.984375 560.898438 715.679688 Z M 560.898438 715.679688 " transform="matrix(0.1,0,0,-0.1,0,127.9)"/>
<path style="fill-rule:evenodd;fill:rgb(99.21875%,99.21875%,99.21875%);fill-opacity:1;stroke-width:5.669;stroke-linecap:butt;stroke-linejoin:miter;stroke:rgb(99.21875%,99.21875%,99.21875%);stroke-opacity:1;stroke-miterlimit:4;" d="M 676.367188 836.890625 C 666.5625 834.585938 663.203125 839.117188 661.875 845.914063 C 661.210938 852.59375 660.664063 859.195313 660.039063 865.796875 C 659.960938 870.796875 661.875 874.390625 667.304688 875.796875 C 711.171875 885.679688 755.195313 895.289063 801.40625 901.1875 C 806.914063 900.914063 810.585938 897.90625 812.265625 892.085938 C 813.164063 885.40625 814.0625 878.804688 814.960938 872.203125 C 769.921875 859.195313 723.632813 847.515625 676.367188 836.890625 Z M 676.367188 836.890625 " transform="matrix(0.1,0,0,-0.1,0,127.9)"/>
<path style=" stroke:none;fill-rule:evenodd;fill:rgb(99.21875%,99.21875%,99.21875%);fill-opacity:1;" d="M 113.285156 71.789063 C 112.105469 71.21875 110.929688 70.640625 109.746094 70.070313 C 106.765625 71.441406 103.621094 72.539063 100.414063 73.511719 C 97.445313 74.089844 94.457031 74.332031 91.449219 74.148438 C 87.878906 73.371094 85.058594 71.941406 82.839844 69.980469 C 81.148438 67.359375 80.777344 64.679688 80.757813 62.011719 C 81.746094 60.160156 82.992188 58.410156 84.472656 56.75 C 85.289063 59.320313 86.183594 61.910156 87.640625 64.539063 C 89.160156 66.390625 90.742188 67.949219 92.535156 68.53125 C 95.539063 69.609375 98.53125 69.949219 101.503906 69.53125 C 103.179688 69.261719 104.84375 68.941406 106.488281 68.261719 C 102.273438 66.429688 99.480469 62.730469 96.703125 59.011719 C 93.710938 55.429688 91.589844 51.511719 89.453125 47.601563 C 86.734375 48.019531 84.289063 48.929688 82.117188 50.320313 C 81.542969 49.890625 81.1875 49.359375 80.9375 48.78125 C 82.953125 46.988281 85.21875 45.378906 87.824219 43.980469 C 84.984375 36.660156 83.339844 29.128906 82.292969 21.5 C 73.890625 19.679688 65.445313 19.261719 57.015625 18.328125 C 53.207031 18.140625 50.539063 16.769531 48.773438 14.53125 C 50.035156 12.988281 51.453125 11.519531 53.121094 10.179688 C 54.238281 10.179688 55.355469 10.179688 56.472656 10.179688 C 55.957031 10.808594 56.101563 11.371094 56.746094 11.898438 C 58.371094 12.589844 60.121094 13.128906 61.996094 13.53125 C 69.644531 14.191406 77.292969 14.941406 85.015625 16.070313 C 86.011719 15.550781 87.007813 15.039063 88.003906 14.53125 C 88.871094 14.050781 89.265625 14.28125 89.363281 15.070313 C 89.453125 15.710938 89.542969 16.339844 89.636719 16.96875 C 94.960938 17.75 100.109375 19.179688 105.039063 21.410156 C 106.664063 22.210938 108.121094 23.300781 109.480469 24.589844 C 111.109375 23.929688 112.953125 23.578125 114.914063 23.410156 C 118.46875 23.140625 121.964844 23.210938 125.425781 23.5 C 128.175781 23.980469 130.710938 25 133.039063 26.398438 C 132.257813 23.808594 131.453125 21.21875 131.132813 18.511719 C 132.765625 17.28125 134.394531 16.039063 136.027344 14.800781 C 136.894531 14.671875 137.515625 14.921875 137.839844 15.621094 C 140.46875 25.730469 142.273438 31.289063 143.367188 32.917969 C 144.839844 35.609375 146.539063 37.929688 148.621094 39.621094 C 147.9375 33.738281 146.105469 28.109375 143.820313 22.589844 C 142.308594 18.480469 140.800781 14.378906 139.289063 10.269531 C 139.078125 8.761719 139.074219 7.21875 139.289063 5.648438 C 141.328125 4.488281 143.40625 3.359375 145.632813 2.390625 C 146.277344 2.738281 146.738281 3.238281 147.078125 3.839844 C 146.730469 5.921875 146.675781 8 147.171875 10.089844 C 149.144531 16.320313 151.386719 22.339844 154.511719 27.671875 C 158.71875 34.230469 163.46875 40.359375 168.644531 46.148438 C 174.023438 52.128906 179.398438 58.109375 184.773438 64.089844 C 188.148438 67.589844 191.398438 71.121094 194.199219 74.78125 C 195.59375 76.398438 196.605469 78.089844 197.1875 79.859375 C 199.335938 83.820313 198.660156 86.851563 195.105469 88.917969 C 192.222656 91.199219 188.742188 92.550781 185.046875 93.539063 C 175.726563 95.980469 166.429688 96.589844 157.140625 96.160156 C 151.570313 95.800781 146.578125 94.738281 142.371094 92.71875 C 136.980469 90.140625 134.320313 86.691406 133.671875 82.570313 C 133.171875 79.890625 133.382813 77.238281 133.761719 74.601563 C 134.523438 70.089844 136.171875 66.050781 140.015625 63.179688 C 142.933594 59.769531 146.214844 56.839844 150.523438 55.300781 C 153.929688 54.679688 155.429688 54.949219 154.058594 56.570313 C 153.230469 57.300781 152.320313 57.800781 151.339844 58.109375 C 149.617188 58.460938 148.171875 59.199219 146.898438 60.191406 C 143.921875 62.089844 141.605469 65.78125 140.105469 71.699219 C 139.464844 74.820313 139.445313 77.910156 140.285156 80.941406 C 141.652344 84.230469 144.113281 86.839844 148.164063 88.460938 C 153.972656 90.859375 160.335938 92.109375 167.378906 91.988281 C 174.613281 91.511719 181.859375 90.660156 189.121094 89.011719 C 191.199219 88.210938 191.96875 86.898438 191.480469 85.109375 C 191.226563 83.460938 190.644531 82.050781 189.757813 80.851563 C 186.398438 76.261719 182.609375 72.5 178.976563 68.441406 C 175.289063 64.359375 171.605469 60.28125 167.921875 56.210938 C 163.785156 51.550781 159.644531 46.910156 155.507813 42.25 C 154.214844 43.679688 152.671875 44.949219 150.886719 46.058594 C 148.933594 47.320313 147.078125 46.839844 145.269531 45.691406 C 143.164063 44.78125 141.496094 42.667969 139.742188 40.800781 C 137.394531 43.839844 134.398438 46.199219 130.226563 47.332031 C 131.132813 49.167969 130.664063 51.140625 129.953125 53.128906 C 128.929688 55.5 127.121094 57.890625 124.789063 60.28125 C 122.578125 62.609375 120.003906 64.558594 117.269531 66.359375 C 118.460938 67.21875 120.195313 67.082031 121.800781 67.167969 C 121.007813 68.761719 119.644531 70 117.722656 70.890625 C 116.316406 71.539063 114.851563 71.910156 113.285156 71.789063 Z M 130.589844 42.429688 C 132.246094 42.96875 132.785156 42.417969 132.3125 40.890625 C 130.960938 35.089844 126.800781 30.910156 119.628906 28.480469 C 117.339844 27.550781 116.828125 28.148438 117.363281 29.660156 C 119.839844 36.070313 124.203125 40.378906 130.589844 42.429688 Z M 114.824219 40.53125 C 108.964844 40.179688 103.171875 40.417969 97.429688 41.167969 C 103.929688 36.089844 110.179688 31.390625 110.566406 27.300781 C 110.960938 27.269531 111.351563 27.238281 111.746094 27.210938 C 111.203125 27.949219 110.730469 28.78125 110.289063 29.660156 C 110.039063 33.621094 111.726563 37.210938 114.824219 40.53125 Z M 94.257813 39.621094 C 92.382813 34.199219 91.109375 28.691406 90.089844 23.140625 C 93.726563 23.929688 97.230469 25.03125 100.507813 26.671875 C 103.316406 27.898438 103.550781 29.589844 102.140625 31.648438 C 100.238281 34.78125 97.480469 37.351563 94.257813 39.621094 Z M 114.28125 65.089844 C 105.777344 60.480469 101.054688 53.53125 96.882813 46.238281 C 103.460938 45.300781 110.0625 45.058594 116.726563 46.511719 C 122.121094 47.871094 125.230469 50.28125 122.980469 55.121094 C 121.160156 59.019531 117.949219 62.179688 114.28125 65.089844 Z M 114.28125 65.089844 "/>
<g clip-path="url(#clip3)" clip-rule="nonzero">
<path style="fill:none;stroke-width:5.669;stroke-linecap:butt;stroke-linejoin:miter;stroke:rgb(99.21875%,99.21875%,99.21875%);stroke-opacity:1;stroke-miterlimit:4;" d="M 1132.851563 561.109375 C 1121.054688 566.8125 1109.296875 572.59375 1097.460938 578.296875 C 1067.65625 564.585938 1036.210938 553.609375 1004.140625 543.882813 C 974.453125 538.101563 944.570313 535.679688 914.492188 537.515625 C 878.789063 545.289063 850.585938 559.585938 828.398438 579.195313 C 811.484375 605.40625 807.773438 632.203125 807.578125 658.882813 C 817.460938 677.398438 829.921875 694.898438 844.726563 711.5 C 852.890625 685.796875 861.835938 659.898438 876.40625 633.609375 C 891.601563 615.09375 907.421875 599.507813 925.351563 593.6875 C 955.390625 582.90625 985.3125 579.507813 1015.039063 583.6875 C 1031.796875 586.382813 1048.4375 589.585938 1064.882813 596.382813 C 1022.734375 614.703125 994.804688 651.695313 967.03125 688.882813 C 937.109375 724.703125 915.898438 763.882813 894.53125 802.984375 C 867.34375 798.804688 842.890625 789.703125 821.171875 775.796875 C 815.429688 780.09375 811.875 785.40625 809.375 791.1875 C 829.53125 809.117188 852.1875 825.210938 878.242188 839.195313 C 849.84375 912.398438 833.398438 987.710938 822.929688 1064 C 738.90625 1082.203125 654.453125 1086.382813 570.15625 1095.71875 C 532.070313 1097.59375 505.390625 1111.304688 487.734375 1133.6875 C 500.351563 1149.117188 514.53125 1163.804688 531.210938 1177.203125 C 542.382813 1177.203125 553.554688 1177.203125 564.726563 1177.203125 C 559.570313 1170.914063 561.015625 1165.289063 567.460938 1160.015625 C 583.710938 1153.101563 601.210938 1147.710938 619.960938 1143.6875 C 696.445313 1137.085938 772.929688 1129.585938 850.15625 1118.296875 C 860.117188 1123.492188 870.078125 1128.609375 880.039063 1133.6875 C 888.710938 1138.492188 892.65625 1136.1875 893.632813 1128.296875 C 894.53125 1121.890625 895.429688 1115.601563 896.367188 1109.3125 C 949.609375 1101.5 1001.09375 1087.203125 1050.390625 1064.898438 C 1066.640625 1056.890625 1081.210938 1045.992188 1094.804688 1033.101563 C 1111.09375 1039.703125 1129.53125 1043.21875 1149.140625 1044.898438 C 1184.6875 1047.59375 1219.648438 1046.890625 1254.257813 1044 C 1281.757813 1039.195313 1307.109375 1029 1330.390625 1015.015625 C 1322.578125 1040.914063 1314.53125 1066.8125 1311.328125 1093.882813 C 1327.65625 1106.1875 1343.945313 1118.609375 1360.273438 1130.992188 C 1368.945313 1132.28125 1375.15625 1129.78125 1378.398438 1122.789063 C 1404.6875 1021.695313 1422.734375 966.109375 1433.671875 949.820313 C 1448.398438 922.90625 1465.390625 899.703125 1486.210938 882.789063 C 1479.375 941.617188 1461.054688 997.90625 1438.203125 1053.101563 C 1423.085938 1094.195313 1408.007813 1135.210938 1392.890625 1176.304688 C 1390.78125 1191.382813 1390.742188 1206.8125 1392.890625 1222.515625 C 1413.28125 1234.117188 1434.0625 1245.40625 1456.328125 1255.09375 C 1462.773438 1251.617188 1467.382813 1246.617188 1470.78125 1240.601563 C 1467.304688 1219.78125 1466.757813 1199 1471.71875 1178.101563 C 1491.445313 1115.796875 1513.867188 1055.601563 1545.117188 1002.28125 C 1587.1875 936.695313 1634.6875 875.40625 1686.445313 817.515625 C 1740.234375 757.710938 1793.984375 697.90625 1847.734375 638.101563 C 1881.484375 603.101563 1913.984375 567.789063 1941.992188 531.1875 C 1955.9375 515.015625 1966.054688 498.101563 1971.875 480.40625 C 1993.359375 440.796875 1986.601563 410.484375 1951.054688 389.820313 C 1922.226563 367.007813 1887.421875 353.492188 1850.46875 343.609375 C 1757.265625 319.195313 1664.296875 313.101563 1571.40625 317.398438 C 1515.703125 320.992188 1465.78125 331.617188 1423.710938 351.8125 C 1369.804688 377.59375 1343.203125 412.085938 1336.71875 453.296875 C 1331.71875 480.09375 1333.828125 506.617188 1337.617188 532.984375 C 1345.234375 578.101563 1361.71875 618.492188 1400.15625 647.203125 C 1429.335938 681.304688 1462.148438 710.601563 1505.234375 725.992188 C 1539.296875 732.203125 1554.296875 729.507813 1540.585938 713.296875 C 1532.304688 705.992188 1523.203125 700.992188 1513.398438 697.90625 C 1496.171875 694.390625 1481.71875 687.007813 1468.984375 677.085938 C 1439.21875 658.101563 1416.054688 621.1875 1401.054688 562.007813 C 1394.648438 530.796875 1394.453125 499.898438 1402.851563 469.585938 C 1416.523438 436.695313 1441.132813 410.601563 1481.640625 394.390625 C 1539.726563 370.40625 1603.359375 357.90625 1673.789063 359.117188 C 1746.132813 363.882813 1818.59375 372.398438 1891.210938 388.882813 C 1911.992188 396.890625 1919.6875 410.015625 1914.804688 427.90625 C 1912.265625 444.390625 1906.445313 458.492188 1897.578125 470.484375 C 1863.984375 516.382813 1826.09375 554 1789.765625 594.585938 C 1752.890625 635.40625 1716.054688 676.1875 1679.21875 716.890625 C 1637.851563 763.492188 1596.445313 809.898438 1555.078125 856.5 C 1542.148438 842.203125 1526.71875 829.507813 1508.867188 818.414063 C 1489.335938 805.796875 1470.78125 810.601563 1452.695313 822.085938 C 1431.640625 831.1875 1414.960938 852.320313 1397.421875 870.992188 C 1373.945313 840.601563 1343.984375 817.007813 1302.265625 805.679688 C 1311.328125 787.320313 1306.640625 767.59375 1299.53125 747.710938 C 1289.296875 724 1271.210938 700.09375 1247.890625 676.1875 C 1225.78125 652.90625 1200.039063 633.414063 1172.695313 615.40625 C 1184.609375 606.8125 1201.953125 608.179688 1218.007813 607.320313 C 1210.078125 591.382813 1196.445313 579 1177.226563 570.09375 C 1163.164063 563.609375 1148.515625 559.898438 1132.851563 561.109375 Z M 1305.898438 854.703125 C 1322.460938 849.3125 1327.851563 854.820313 1323.125 870.09375 C 1309.609375 928.101563 1268.007813 969.898438 1196.289063 994.195313 C 1173.398438 1003.492188 1168.28125 997.515625 1173.632813 982.398438 C 1198.398438 918.296875 1242.03125 875.210938 1305.898438 854.703125 Z M 1148.242188 873.6875 C 1089.648438 877.203125 1031.71875 874.820313 974.296875 867.320313 C 1039.296875 918.101563 1101.796875 965.09375 1105.664063 1005.992188 C 1109.609375 1006.304688 1113.515625 1006.617188 1117.460938 1006.890625 C 1112.03125 999.507813 1107.304688 991.1875 1102.890625 982.398438 C 1100.390625 942.789063 1117.265625 906.890625 1148.242188 873.6875 Z M 942.578125 882.789063 C 923.828125 937.007813 911.09375 992.085938 900.898438 1047.59375 C 937.265625 1039.703125 972.304688 1028.6875 1005.078125 1012.28125 C 1033.164063 1000.015625 1035.507813 983.101563 1021.40625 962.515625 C 1002.382813 931.1875 974.804688 905.484375 942.578125 882.789063 Z M 1142.8125 628.101563 C 1057.773438 674.195313 1010.546875 743.6875 968.828125 816.617188 C 1034.609375 825.992188 1100.625 828.414063 1167.265625 813.882813 C 1221.210938 800.289063 1252.304688 776.1875 1229.804688 727.789063 C 1211.601563 688.804688 1179.492188 657.203125 1142.8125 628.101563 Z M 1142.8125 628.101563 " transform="matrix(0.1,0,0,-0.1,0,127.9)"/>
</g>
</g>
</svg>
